<svg width="20" height="21" viewBox="0 0 20 21" fill="none" xmlns="http://www.w3.org/2000/svg">
<path d="M4.39705 5.05379L4.46967 4.96967C4.73594 4.7034 5.1526 4.6792 5.44621 4.89705L5.53033 4.96967L10 9.439L14.4697 4.96967C14.7626 4.67678 15.2374 4.67678 15.5303 4.96967C15.8232 5.26256 15.8232 5.73744 15.5303 6.03033L11.061 10.5L15.5303 14.9697C15.7966 15.2359 15.8208 15.6526 15.6029 15.9462L15.5303 16.0303C15.2641 16.2966 14.8474 16.3208 14.5538 16.1029L14.4697 16.0303L10 11.561L5.53033 16.0303C5.23744 16.3232 4.76256 16.3232 4.46967 16.0303C4.17678 15.7374 4.17678 15.2626 4.46967 14.9697L8.939 10.5L4.46967 6.03033C4.2034 5.76406 4.1792 5.3474 4.39705 5.05379L4.46967 4.96967L4.39705 5.05379Z" fill="#586063"/>
</svg>
