<svg width="20" height="20" viewBox="0 0 20 20" fill="none" xmlns="http://www.w3.org/2000/svg">
<path d="M3.75 5.75C3.75 5.33579 4.08579 5 4.5 5H15.5C15.9142 5 16.25 5.33579 16.25 5.75C16.25 6.16421 15.9142 6.5 15.5 6.5H4.5C4.08579 6.5 3.75 6.16421 3.75 5.75ZM5.75 9.75C5.75 9.33579 6.08579 9 6.5 9H13.5C13.9142 9 14.25 9.33579 14.25 9.75C14.25 10.1642 13.9142 10.5 13.5 10.5H6.5C6.08579 10.5 5.75 10.1642 5.75 9.75ZM7.75 13.75C7.75 13.3358 8.08579 13 8.5 13H11.5C11.9142 13 12.25 13.3358 12.25 13.75C12.25 14.1642 11.9142 14.5 11.5 14.5H8.5C8.08579 14.5 7.75 14.1642 7.75 13.75Z" fill="#42484A"/>
</svg>
