<svg width="20" height="20" viewBox="0 0 20 20" fill="none" xmlns="http://www.w3.org/2000/svg">
<path d="M9.83248 3.75502L10 3.75C11.4625 3.75 12.6584 4.8917 12.745 6.33248L12.75 6.5V7H13.5C14.3284 7 15 7.67157 15 8.5V14.5C15 15.3284 14.3284 16 13.5 16H6.5C5.67157 16 5 15.3284 5 14.5V8.5C5 7.67157 5.67157 7 6.5 7H7.25V6.5C7.25 5.03747 8.3917 3.8416 9.83248 3.75502L10 3.75L9.83248 3.75502ZM10 10.5C9.44772 10.5 9 10.9477 9 11.5C9 12.0523 9.44772 12.5 10 12.5C10.5523 12.5 11 12.0523 11 11.5C11 10.9477 10.5523 10.5 10 10.5ZM10.1278 5.25645L10 5.25C9.35279 5.25 8.82047 5.74187 8.75645 6.37219L8.75 6.5V7H11.25V6.5C11.25 5.85279 10.7581 5.32047 10.1278 5.25645L10 5.25L10.1278 5.25645Z" fill="white"/>
</svg>
